<?xml version="1.0" encoding="utf-8"?>
<!-- Generator: Adobe Illustrator 22.1.0, SVG Export Plug-In . SVG Version: 6.00 Build 0)  -->
<svg version="1.1" id="Capa_1" xmlns="http://www.w3.org/2000/svg" xmlns:xlink="http://www.w3.org/1999/xlink" x="0px" y="0px"
	 viewBox="0 0 419 94" style="enable-background:new 0 0 419 94;" xml:space="preserve">
<style type="text/css">
	.st0{fill:#FFFFFF;}
</style>
<g>
	<g>
		<g>
			<path class="st0" d="M73.3,19.7C65.7,12.2,55.7,8,45,8s-20.7,4.2-28.3,11.7C9.2,27.3,5,37.3,5,48c0,10.7,4.2,20.7,11.7,28.3
				C24.3,83.8,34.3,88,45,88s20.7-4.2,28.3-11.7C80.8,68.7,85,58.7,85,48C85,37.3,80.8,27.3,73.3,19.7z M62.1,58
				c-4.7,8-14.1,11.5-22.7,9.1l-2.6,4.4L29,66.9l2.5-4.3c-5.6-5.1-7.7-13.1-5.5-20.3l6.7,3.9c-0.7,4.9,1.5,10,6,12.6
				c5.9,3.5,13.6,1.5,17-4.5c3.5-5.9,1.5-13.6-4.5-17c-4.5-2.6-10-2.1-13.9,0.9l-6.7-3.9c5.2-5.4,13-7.4,20.1-5.2l2.5-4.3l7.9,4.6
				l-2.5,4.3C65.1,39.9,66.8,49.9,62.1,58z"/>
		</g>
		<g>
			<g>
				<path class="st0" d="M144.7,27.7h8.4v7.9h0.2c0.3-1.1,0.8-2.2,1.5-3.2c0.8-1,1.7-2,2.8-2.9c1.1-0.9,2.3-1.6,3.6-2.1
					c1.3-0.5,2.7-0.8,4-0.8c1.1,0,1.8,0,2.2,0.1c0.4,0.1,0.8,0.1,1.2,0.2v8.7c-0.6-0.1-1.3-0.2-1.9-0.3c-0.7-0.1-1.3-0.1-1.9-0.1
					c-1.5,0-3,0.3-4.3,0.9c-1.3,0.6-2.5,1.5-3.5,2.7c-1,1.2-1.8,2.6-2.4,4.4c-0.6,1.7-0.9,3.7-0.9,6v19.5h-9V27.7z"/>
			</g>
			<g>
				<path class="st0" d="M111.9,36.5c1.1-1.1,2.3-1.8,3.6-2.2c1.3-0.4,2.5-0.6,3.7-0.6c2.5,0,4.6,0.6,6.2,1.9c1.6,1.3,2.6,3.2,3,5.7
					h8.9c-0.2-2.5-0.8-4.7-1.9-6.5c-1-1.8-2.4-3.3-4-4.5c-1.6-1.2-3.5-2.1-5.6-2.7c-2.1-0.6-4.3-0.9-6.7-0.9c-3.3,0-6.3,0.6-8.7,1.7
					c-2.5,1.1-4.6,2.7-6.2,4.6c-1.7,2-2.9,4.3-3.8,6.9c-0.8,2.7-1.3,5.5-1.3,8.5c0,3,0.4,5.7,1.3,8.3c0.9,2.6,2.1,4.8,3.8,6.6
					c1.7,1.9,3.7,3.3,6.1,4.4c2.4,1.1,5.2,1.6,8.4,1.6c5.2,0,9.4-1.4,12.6-4.2c3.2-2.8,5.2-6.8,6-12.1h-8.9
					c-0.4,2.9-1.5,5.2-3.2,6.8c-1.7,1.6-3.8,2.4-6.5,2.4c-1.9,0-3.6-0.4-4.9-1.2c-1.4-0.8-2.5-1.9-3.3-3.2c-0.9-1.3-1.5-2.8-1.9-4.5
					c-0.4-1.7-0.6-3.3-0.6-5c0-3.1,0.4-5.6,1.1-7.5C109.9,39.1,110.8,37.6,111.9,36.5z"/>
			</g>
			<g>
				<path class="st0" d="M242.3,29.4c-1.5-0.9-3.3-1.6-5.2-2c-1.9-0.4-3.9-0.6-5.9-0.6c-2.2,0-4.4,0.2-6.6,0.6
					c-2.1,0.4-4.1,1.1-5.8,2.2c-1.7,1-3.1,2.4-4.2,4.1c-1.1,1.7-1.7,3.9-1.9,6.5h8.9c0.2-2.2,1.1-3.8,2.7-4.9c1.6-1,3.7-1.6,6.2-1.6
					c0.9,0,1.8,0.1,2.8,0.2c1,0.1,1.9,0.4,2.7,0.8c0.8,0.4,1.5,1,2,1.7c0.5,0.7,0.8,1.7,0.8,2.8c0,1.3-0.3,2.3-1,2.9
					c-0.7,0.7-1.5,1.1-2.7,1.4c-1.1,0.3-2.4,0.5-3.9,0.7c-1.5,0.1-3,0.4-4.6,0.7c-1.9,0.2-3.7,0.5-5.6,0.9c-1.9,0.4-3.5,1-5,1.9
					c-1.5,0.9-2.7,2.1-3.6,3.7c-0.9,1.6-1.4,3.6-1.4,6.1c0,2,0.4,3.7,1.1,5.2c0.8,1.5,1.8,2.7,3.1,3.7c1.3,1,2.8,1.7,4.4,2.2
					c1.7,0.5,3.4,0.7,5.2,0.7c2.4,0,4.9-0.4,7.5-1.2c2.6-0.8,4.8-2,6.5-3.8c0,0.9,0,3.6,0,3.6v0.5h8.2l0-9.3V38.5
					c0-2.1-0.5-4-1.4-5.4C245.1,31.5,243.9,30.3,242.3,29.4z M238.5,54.7c0,1.4-0.3,2.6-1,3.6c-0.7,1-1.5,1.8-2.5,2.4
					c-1,0.6-2.1,1.1-3.2,1.3c-1.1,0.3-2.2,0.4-3.2,0.4c-0.8,0-1.7-0.1-2.6-0.2c-1-0.2-1.9-0.4-2.7-0.8c-0.8-0.4-1.5-0.9-2.1-1.6
					c-0.6-0.7-0.9-1.5-0.9-2.5c0-1.1,0.2-2.1,0.6-2.9c0.4-0.8,0.9-1.5,1.6-2c0.7-0.5,1.5-0.9,2.3-1.2c0.9-0.3,1.8-0.5,2.7-0.7
					c2-0.4,4-0.6,6-0.8c2-0.2,3.7-0.7,5-1.6V54.7z"/>
			</g>
			<g>
				<path class="st0" d="M202.5,34c-1.7-2.2-3.8-4-6.3-5.3c-2.5-1.3-5.4-2-8.6-2c-3,0-5.7,0.6-8.1,1.7c-2.4,1.1-4.5,2.7-6.1,4.7
					c-1.7,2-3,4.2-3.9,6.8c-0.9,2.6-1.4,5.3-1.4,8.2c0,3.1,0.4,6,1.3,8.6c0.9,2.6,2.1,4.9,3.8,6.7c1.7,1.9,3.8,3.3,6.2,4.4
					c2.5,1,5.3,1.6,8.5,1.6c2.2,0,4.3-0.3,6.3-0.9c2-0.6,3.8-1.5,5.4-2.7c1.6-1.2,3-2.6,4.1-4.3c1.1-1.7,2-3.7,2.4-5.9h-8.5
					c-0.8,2.2-2,3.9-3.6,5.1c-1.6,1.1-3.7,1.7-6.3,1.7c-1.9,0-3.5-0.3-4.9-1c-1.4-0.7-2.5-1.5-3.4-2.6c-0.9-1.1-1.6-2.4-2-3.8
					c-0.4-1.5-0.7-3-0.7-4.5h29.8c0.4-3,0.2-6-0.6-8.8C205.4,38.7,204.2,36.2,202.5,34z M177,44.5c0.1-1.5,0.4-2.9,0.9-4.2
					c0.5-1.3,1.3-2.4,2.2-3.4c0.9-1,2-1.7,3.3-2.3c1.3-0.5,2.7-0.8,4.3-0.8c1.5,0,2.9,0.3,4.1,0.9c1.2,0.6,2.3,1.4,3.1,2.3
					c0.9,1,1.5,2.1,2,3.4c0.5,1.3,0.8,2.7,0.9,4.1H177z"/>
			</g>
		</g>
	</g>
	<g>
		<path class="st0" d="M270.2,56c0.1,1.8,0.5,3.3,1.2,4.5c0.7,1.2,1.5,2.3,2.5,3c1,0.8,2.2,1.3,3.5,1.7c1.3,0.4,2.8,0.5,4.3,0.5
			c1.8,0,3.3-0.2,4.6-0.7c1.3-0.4,2.4-1.1,3.2-1.8c0.8-0.8,1.4-1.6,1.8-2.6s0.6-2.1,0.6-3.2c0-1.6-0.4-2.8-1.1-3.8
			c-0.7-1-1.6-1.8-2.8-2.4c-1.1-0.6-2.4-1.1-3.9-1.5c-1.5-0.4-3-0.7-4.5-1.1c-1.5-0.4-3-0.8-4.5-1.3c-1.5-0.5-2.8-1.1-3.9-2
			c-1.1-0.8-2.1-1.9-2.8-3.2s-1.1-2.9-1.1-4.9c0-1.4,0.3-2.7,0.9-4c0.6-1.3,1.4-2.5,2.6-3.5c1.1-1,2.6-1.8,4.3-2.4s3.7-0.9,5.9-0.9
			c2.3,0,4.2,0.3,5.9,0.9c1.7,0.6,3.1,1.5,4.2,2.6c1.1,1.1,2,2.4,2.5,3.8c0.6,1.4,0.8,3,0.8,4.6h-3.6c0-1.5-0.3-2.8-0.8-4
			c-0.5-1.1-1.3-2-2.2-2.7c-0.9-0.7-2-1.2-3.2-1.6c-1.2-0.3-2.4-0.5-3.7-0.5c-1.9,0-3.6,0.3-4.9,0.8c-1.3,0.5-2.4,1.2-3.2,2.1
			c-0.8,0.9-1.3,1.8-1.6,2.8c-0.3,1-0.4,2.1-0.2,3.1c0.2,1.3,0.7,2.3,1.6,3.1c0.8,0.8,1.8,1.4,3,1.9s2.5,0.9,3.9,1.2
			c1.4,0.3,2.9,0.7,4.4,1c1.5,0.4,2.9,0.8,4.3,1.3c1.4,0.5,2.6,1.1,3.7,2c1.1,0.8,1.9,1.9,2.6,3.2c0.6,1.3,1,2.9,1,4.8
			c0,3.7-1.3,6.6-3.8,8.6c-2.6,2-6.2,3.1-10.8,3.1c-2.1,0-4-0.3-5.8-0.8c-1.8-0.5-3.3-1.4-4.6-2.5c-1.3-1.1-2.3-2.5-3-4.1
			c-0.7-1.6-1.1-3.5-1.1-5.7H270.2z"/>
		<path class="st0" d="M331.2,39.5c-0.8-3.4-2.2-5.9-4.3-7.3c-2.1-1.5-4.9-2.2-8.3-2.2c-2.4,0-4.5,0.5-6.2,1.4
			c-1.7,1-3.2,2.3-4.3,3.9c-1.1,1.6-2,3.5-2.5,5.7c-0.5,2.1-0.8,4.4-0.8,6.8c0,2.2,0.2,4.4,0.7,6.6c0.5,2.2,1.2,4.1,2.3,5.8
			c1.1,1.7,2.5,3.1,4.3,4.1c1.8,1,4.1,1.6,6.9,1.6c1.7,0,3.3-0.3,4.7-0.8c1.4-0.6,2.6-1.3,3.7-2.3c1.1-1,2-2.1,2.7-3.5
			s1.3-2.8,1.6-4.4h4c-0.4,1.9-1.1,3.8-2,5.5c-0.9,1.7-2,3.2-3.4,4.5c-1.4,1.3-3.1,2.3-5.1,3.1c-2,0.8-4.3,1.1-7,1.1
			c-3.1,0-5.7-0.6-7.9-1.7c-2.2-1.1-4-2.7-5.4-4.6c-1.4-1.9-2.4-4.2-3-6.7c-0.6-2.5-0.9-5.3-0.9-8.1c0-3.8,0.5-7.1,1.4-9.8
			c0.9-2.7,2.3-4.9,3.9-6.6c1.7-1.7,3.6-2.9,5.9-3.7c2.3-0.8,4.7-1.1,7.4-1.1c2,0,4,0.3,5.7,0.8c1.8,0.5,3.3,1.3,4.7,2.4
			c1.4,1.1,2.5,2.4,3.3,4c0.9,1.6,1.5,3.4,1.8,5.5H331.2z"/>
		<path class="st0" d="M339.3,68l15.8-40.2h4.3L374.8,68h-3.9l-4.6-12.6h-18.3L343.2,68H339.3z M349.2,52.2h15.7l-7.9-21.1
			L349.2,52.2z"/>
		<path class="st0" d="M384,33h-0.1v35h-3.8V27.9h4.3l23.2,35.1h0.1V27.9h3.8V68H407L384,33z"/>
	</g>
</g>
</svg>
