<?xml version="1.0" encoding="UTF-8" standalone="no"?>
<svg
   xmlns:dc="http://purl.org/dc/elements/1.1/"
   xmlns:cc="http://creativecommons.org/ns#"
   xmlns:rdf="http://www.w3.org/1999/02/22-rdf-syntax-ns#"
   xmlns:svg="http://www.w3.org/2000/svg"
   xmlns="http://www.w3.org/2000/svg"
   version="1.1"
   id="Layer_1"
   x="0px"
   y="0px"
   viewBox="0 0 175 175"
   xml:space="preserve"
   width="175"
   height="175"><metadata
   id="metadata894"><rdf:RDF><cc:Work
       rdf:about=""><dc:format>image/svg+xml</dc:format><dc:type
         rdf:resource="http://purl.org/dc/dcmitype/StillImage" /><dc:title></dc:title></cc:Work></rdf:RDF></metadata><defs
   id="defs892" />
<style
   type="text/css"
   id="style881">
	.st0{fill:#FFFFFF;}
	.st1{fill:#222222;}
</style>
    <path
   class="st0"
   d="m 169.1584,86.906107 c 0,-45.1 -36.6,-81.7000001 -81.700003,-81.7000001 -45.1,0 -81.7000001,36.6000001 -81.7000001,81.7000001 0,45.100003 36.6000001,81.700003 81.7000001,81.700003 45.100003,0 81.700003,-36.6 81.700003,-81.700003 z"
   id="path883"
   style="fill:#ffffff" />
    
    <path
   class="st1"
   d="M 149.35194,25.573566 C 132.86391,9.077307 110.87986,0 87.5,0 64.12014,0 42.22333,9.077307 25.648056,25.573566 9.1600199,42.069825 0,64.064838 0,87.45636 0,110.84788 9.0727817,132.75561 25.648056,149.33915 42.136092,165.83541 64.12014,175 87.5,175 c 23.37986,0 45.36391,-9.07731 61.85194,-25.57357 C 165.83998,132.93017 175,110.93516 175,87.54364 174.9128,64.064838 165.83998,42.157107 149.35194,25.573566 Z m -23.99052,83.790524 c -10.38136,17.7182 -31.23131,25.48628 -50.07478,20.07481 l -5.670488,9.68828 -17.447657,-10.21197 5.496011,-9.42643 C 45.363908,108.14214 40.565803,90.5985 45.451147,74.53865 l 14.74327,8.6409 c -1.570289,10.82294 3.315055,21.99501 13.347457,27.84289 13.085743,7.6808 30.009966,3.22943 37.599706,-9.86284 7.67696,-13.09227 3.22781,-30.024937 -9.85793,-37.618453 -9.945165,-5.84788 -22.071287,-4.625935 -30.707877,2.007481 L 55.745264,56.907731 C 67.17348,45.037406 84.44666,40.498753 100.14955,45.386534 l 5.49601,-9.426434 17.44766,10.124688 -5.49601,9.426434 c 14.56879,13.61596 18.2328,35.960098 7.76421,53.852868 z"
   id="path887"
   style="fill:#222222;stroke-width:0.87260038" />
</svg>