<?xml version="1.0" standalone="no"?>
<!DOCTYPE svg PUBLIC "-//W3C//DTD SVG 20010904//EN"
 "http://www.w3.org/TR/2001/REC-SVG-20010904/DTD/svg10.dtd">
<svg version="1.0" xmlns="http://www.w3.org/2000/svg"
 width="131.000000pt" height="131.000000pt" viewBox="0 0 131.000000 131.000000"
 preserveAspectRatio="xMidYMid meet">
<metadata>
Created by potrace 1.11, written by Peter Selinger 2001-2013
</metadata>
<g transform="translate(0.000000,131.000000) scale(0.100000,-0.100000)"
fill="#000000" stroke="none">
<path d="M304 1298 c-4 -6 -40 -76 -80 -155 l-73 -144 76 -154 77 -154 153
304 c84 168 153 307 153 310 0 11 -299 5 -306 -7z"/>
<path d="M690 1307 c0 -2 69 -141 153 -310 l154 -307 77 154 76 154 -77 154
-78 153 -152 3 c-84 1 -153 1 -153 -1z"/>
<path d="M484 977 l-162 -322 165 -328 164 -329 163 328 164 328 -88 175
c-196 394 -235 471 -240 471 -3 0 -78 -145 -166 -323z"/>
</g>
</svg>
